<svg id="Layer_1" data-name="Layer 1" xmlns="http://www.w3.org/2000/svg" viewBox="0 0 122.42 106.75"><defs><style>.cls-1{fill:#15346b;}.cls-2{fill:#fff;}</style></defs><path class="cls-1" d="M47.39,89.7c0-.92,0-1.84,0-2.76a.81.81,0,0,0-.63-.92c-.93-.31-1.82-.73-2.76-1a3,3,0,0,0-1.47,0c-7.08,1.66-14.18,3.24-21.39,4.23a39.67,39.67,0,0,1-9.49.5l-.44,0C9.36,89.4,8.88,88.88,8.84,87a22,22,0,0,1,4.52-13.34,35.73,35.73,0,0,1,7.7-7.73,4.52,4.52,0,0,1,1.51-.74c7.51-2.11,15-4.29,22.55-6.27C58,55.56,70.88,52.32,83.76,49a2.7,2.7,0,0,0,1.75-1.22c4.11-6.26,8.27-12.47,12.34-18.75a2.62,2.62,0,0,1,3-1.45c2,.38,4,.46,6,.71,1.48.18,1.84.79,1.33,2.17L99.05,55.3l-.87,2.34c-.42,1.16-.3,1.53.76,2.22q6.51,4.28,13,8.53l.81.55c.67.41,1,1,.63,1.71a1.24,1.24,0,0,1-1.67.58l-6.16-1.78c-3.73-1.08-7.46-2.19-11.2-3.23a2.42,2.42,0,0,0-1.53,0Q79.88,71.61,67,77a2,2,0,0,0-1,1.2c-.17.68.42,1.09,1,1.43q13,7.8,26,15.64a2.91,2.91,0,0,1,.88.57,2,2,0,0,1,.47,1.23,1.35,1.35,0,0,1-.8.92c-1.55.4-3.13.71-4.7,1a2.45,2.45,0,0,1-1-.19c-7.55-2.17-15.13-4.28-22.66-6.57C63,91.62,61,92,59,92.44l-9,1.83c-1.72.35-2.61-.4-2.63-2.16V89.7ZM51.5,63.45a9,9,0,1,0,9,8.93A9,9,0,0,0,51.5,63.45Z"/><path class="cls-1" d="M36.59,39.84a2.73,2.73,0,0,1,.8.47c2.26,2.39,4.49,4.81,6.73,7.22,1.9,2,3.78,4.09,5.67,6.14,1,1,.87,1.42-.46,1.81L35.18,59.66c-.92.27-1.26.09-1.53-.81q-2.58-8.55-5.13-17.1c-.3-1-.08-1.29,1-1.36Z"/><path class="cls-1" d="M77.5,19.36l-1,.28c-3-6.86-8-10.57-15.67-9.36a12.94,12.94,0,0,0-2.55,24.85l-1.56,4.12C52.25,38,45.92,31.67,46.4,23c.45-7.93,7-14.71,14.73-15.26A15.6,15.6,0,0,1,77.5,19.36Z"/><path class="cls-1" d="M63.15,26.18a3.11,3.11,0,0,1-3.49-2.1,3.41,3.41,0,0,1,5-4,3.42,3.42,0,0,1,1.46,3.8,2.42,2.42,0,0,0,.09,1.33c.6,1.58,1.3,3.12,1.92,4.7a3.84,3.84,0,0,1,.1,1,3.53,3.53,0,0,1-.87-.5c-1.06-1.16-2.06-2.37-3.13-3.52A6,6,0,0,0,63.15,26.18Z"/><path class="cls-1" d="M78.15,24.23a1.22,1.22,0,0,1-1.21-1.18,1.19,1.19,0,1,1,2.38.07A1.22,1.22,0,0,1,78.15,24.23Z"/><path class="cls-1" d="M62.66,39.06a1.14,1.14,0,0,1-1.22-1.12,1.11,1.11,0,0,1,1.17-1.15,1.14,1.14,0,1,1,0,2.27Z"/><path class="cls-1" d="M78.11,30.32A1.14,1.14,0,0,1,77,29.12a1.12,1.12,0,0,1,1.28-1.07,1.05,1.05,0,0,1,1.06,1.09A1.18,1.18,0,0,1,78.11,30.32Z"/><path class="cls-1" d="M70.13,38.38a1.07,1.07,0,0,1-1-1.12,1.12,1.12,0,0,1,1.2-1.15,1.1,1.1,0,0,1,1.14,1.13C71.51,37.9,71,38.39,70.13,38.38Z"/><path class="cls-1" d="M75.5,33.24a1.15,1.15,0,0,1,1.2,1.14,1.26,1.26,0,0,1-1.15,1.22,1.27,1.27,0,0,1-1.16-1.22A1.14,1.14,0,0,1,75.5,33.24Z"/><path class="cls-2" d="M51.5,63.45a9,9,0,1,1-9,9A9,9,0,0,1,51.5,63.45Zm0,.9a8.07,8.07,0,1,0,8,8.05A8.13,8.13,0,0,0,51.53,64.35Z"/><path class="cls-2" d="M51.53,64.35a8.07,8.07,0,1,1-8.11,8.1A8.1,8.1,0,0,1,51.53,64.35Zm1.9,9.12,3.3-1-.87-2.9-3.3,1-1.05-3.3-2.88.87,1,3.33-3.31,1,.88,2.9,3.3-1,1,3.31,2.88-.89Z"/><path class="cls-1" d="M53.43,73.47l1,3.3-2.88.89-1-3.31-3.3,1-.88-2.9,3.31-1-1-3.33,2.88-.87,1.05,3.3,3.3-1,.87,2.9Z"/></svg>